<svg xmlns="http://www.w3.org/2000/svg"><metadata/><defs><font id="tomoregular" horiz-adv-x="1536"><font-face ascent="1638" descent="-410" units-per-em="2048"/><glyph/><glyph/><glyph d="M512 0v256h256v-256h-256zM512 512v1280h256v-1280h-256z" unicode="!"/><glyph d="M256 1280v768h256v-768h-256zM768 1280v768h256v-768h-256z" unicode="&quot;"/><glyph d="M0 256v256h256v512h-256v256h256v256h256v-256h256v256h256v-256h256v-256h-256v-512h256v-256h-256v-256h-256v256h-256v-256h-256v256h-256zM512 512h256v512h-256v-512z" unicode="#"/><glyph d="M0 256h256v-256h256v-256h256v256h256v256h-768v256h-256v-256zM0 1024h256v512h-256v-512zM256 768h768v256h-768v-256zM256 1536h768v256h-256v256h-256v-256h-256v-256zM1024 256h256v512h-256v-512zM1024 1280h256v256h-256v-256z" unicode="$"/><glyph d="M0 0v512h256v256h256v256h-256v256h256v256h256v-256h-256v-256h256v256h256v512h256v-512h-256v-256h-256v-256h-256v-256h-256v-512h-256zM0 1280v256h256v256h256v-256h-256v-256h-256zM512 256v256h256v-256h-256zM768 0v256h256v-256h-256zM768 512v256h256v-256 h-256zM1024 256v256h256v-256h-256z" unicode="%"/><glyph d="M0 256v768h256v-768h-256zM256 0v256h512v-256h-512zM256 1024v768h256v256h256v-256h-256v-512h256v512h256v-768h-256v-256h-256v256h-256zM768 256v512h256v256h256v-256h-256v-256h256v-512h-256v256h-256z" unicode="&amp;"/><glyph d="M512 1280v768h256v-768h-256z" unicode="'"/><glyph d="M256 256v1024h256v512h256v256h256v-256h-256v-512h-256v-1024h-256zM512 256h256v-512h-256v512zM768 -256h256v-256h-256v256z" unicode="("/><glyph d="M256 -256h256v512h256v1024h-256v512h256v-512h256v-1024h-256v-512h-256v-256h-256v256zM256 1792v256h256v-256h-256z" unicode=")"/><glyph d="M0 1280v256h512v256h256v-256h512v-256h-512v-256h-256v-256h-256v256h256v256h-512zM768 768v256h256v-256h-256z" unicode="*"/><glyph d="M0 512v256h512v512h256v-512h512v-256h-512v-512h-256v512h-512z" unicode="+"/><glyph d="M256 0h256v512h256v-512h-256v-256h-256v256z" unicode=","/><glyph d="M256 512v256h768v-256h-768z" unicode="-"/><glyph d="M512 0v512h256v-512h-256z" unicode="."/><glyph d="M0 0h256v512h256v512h256v512h256v512h256v-512h-256v-512h-256v-512h-256v-512h-256v-512h-256v512z" unicode="/"/><glyph d="M0 256v1280h256v256h768v-256h-768v-768h256v-256h-256v-256h-256zM256 0v256h768v-256h-768zM512 768v256h256v-256h-256zM768 1024v256h256v256h256v-1280h-256v768h-256z" unicode="0"/><glyph d="M0 0v256h512v1024h-256v256h256v256h256v-1536h512v-256h-1280zM0 1024v256h256v-256h-256z" unicode="1"/><glyph d="M0 0v256h256v256h256v256h256v256h256v512h256v-512h-256v-256h-256v-256h-256v-256h768v-256h-1280zM0 1280v256h256v256h768v-256h-768v-256h-256z" unicode="2"/><glyph d="M0 256v256h256v-256h-256zM0 1280v256h256v256h768v-256h-768v-256h-256zM256 0v256h768v-256h-768zM512 768v256h512v512h256v-512h-256v-256h-512zM1024 256v512h256v-512h-256z" unicode="3"/><glyph d="M0 512v512h256v-256h512v512h-256v256h256v256h256v-1024h256v-256h-256v-512h-256v512h-768zM256 1024v256h256v-256h-256z" unicode="4"/><glyph d="M0 256v256h256v-256h-256zM0 768v1024h1280v-256h-1024v-512h768v-256h-1024zM256 0v256h768v-256h-768zM1024 256v512h256v-512h-256z" unicode="5"/><glyph d="M0 256v1024h256v256h256v256h512v-256h-512v-256h-256v-256h768v-256h-768v-512h-256zM256 0v256h768v-256h-768zM1024 256v512h256v-512h-256z" unicode="6"/><glyph d="M0 1536v256h1280v-512h-256v-512h-256v-768h-256v768h256v512h256v256h-1024z" unicode="7"/><glyph d="M0 256v512h256v256h768v512h256v-512h-256v-256h-768v-512h-256zM0 1024v512h256v256h768v-256h-768v-512h-256zM256 0v256h768v-256h-768zM1024 256v512h256v-512h-256z" unicode="8"/><glyph d="M0 1024v512h256v256h768v-256h-768v-512h768v512h256v-1024h-256v256h-768v256h-256zM256 0v256h512v256h256v-256h-256v-256h-512z" unicode="9"/><glyph d="M512 0v512h256v-512h-256zM512 768v512h256v-512h-256z" unicode=":"/><glyph d="M256 0h256v512h256v-512h-256v-256h-256v256zM512 768v512h256v-512h-256z" unicode=";"/><glyph d="M256 512v256h256v256h256v256h256v-256h-256v-256h-256v-256h-256zM512 256v256h256v-256h-256zM768 0v256h256v-256h-256z" unicode="&lt;"/><glyph d="M0 256v256h1280v-256h-1280zM0 768v256h1280v-256h-1280z" unicode="="/><glyph d="M256 0v256h256v256h256v256h-256v256h256v-256h256v-256h-256v-256h-256v-256h-256zM256 1024v256h256v-256h-256z" unicode="&gt;"/><glyph d="M0 1280v256h256v256h768v-256h-768v-256h-256zM512 0v256h256v-256h-256zM512 512v256h256v256h256v512h256v-512h-256v-256h-256v-256h-256z" unicode="?"/><glyph d="M0 256v1280h256v-1280h-256zM256 0v256h768v-256h-768zM256 1536v256h768v-256h256v-1024h-768v512h256v256h256v256h-768zM768 768h256v256h-256v-256z" unicode="@"/><glyph d="M0 0v1024h256v512h256v256h256v-256h-256v-512h-256v-256h768v256h-256v512h256v-512h256v-1024h-256v512h-768v-512h-256z" unicode="A"/><glyph d="M0 0v1792h1024v-256h-768v-512h768v-256h-768v-512h768v-256h-1024zM1024 256v512h256v-512h-256zM1024 1024v512h256v-512h-256z" unicode="B"/><glyph d="M0 256v1280h256v256h768v-256h-768v-1280h-256zM256 0v256h768v-256h-768zM1024 256v256h256v-256h-256z" unicode="C"/><glyph d="M0 0v1792h768v-256h-512v-1280h512v-256h-768zM768 256v256h256v-256h-256zM768 1280v256h256v-256h-256zM1024 512v768h256v-768h-256z" unicode="D"/><glyph d="M0 0v1792h1280v-256h-1024v-512h768v-256h-768v-512h1024v-256h-1280z" unicode="E"/><glyph d="M0 0v1792h1280v-256h-1024v-512h768v-256h-768v-768h-256z" unicode="F"/><glyph d="M0 256v1280h256v256h768v-256h-768v-1280h-256zM256 0v256h768v512h-256v256h512v-1024h-1024zM1024 1280v256h256v-256h-256z" unicode="G"/><glyph d="M0 0v1792h256v-768h768v768h256v-1792h-256v768h-768v-768h-256z" unicode="H"/><glyph d="M0 0v256h512v1280h-512v256h1280v-256h-512v-1280h512v-256h-1280z" unicode="I"/><glyph d="M0 256v256h256v-256h-256zM256 0v256h512v-256h-512zM512 1536v256h768v-256h-256v-1280h-256v1280h-256z" unicode="J"/><glyph d="M0 0v1792h256v-768h256v-256h-256v-768h-256zM512 512v256h256v-256h-256zM512 1024v256h256v-256h-256zM768 256v256h256v-256h-256zM768 1280v256h256v-256h-256zM1024 0v256h256v-256h-256zM1024 1536v256h256v-256h-256z" unicode="K"/><glyph d="M0 0v1792h256v-1536h1024v-256h-1280z" unicode="L"/><glyph d="M0 0v1792h256v-512h256v-512h-256v-768h-256zM512 256v512h256v-512h-256zM768 768v512h256v512h256v-1792h-256v768h-256z" unicode="M"/><glyph d="M0 0v1792h256v-256h256v-512h-256v-1024h-256zM512 768v256h256v-256h-256zM768 256v512h256v1024h256v-1792h-256v256h-256z" unicode="N"/><glyph d="M0 256v1280h256v256h768v-256h-768v-1280h-256zM256 0v256h768v-256h-768zM1024 256v1280h256v-1280h-256z" unicode="O"/><glyph d="M0 0v1792h1024v-256h-768v-768h768v-256h-768v-512h-256zM1024 768v768h256v-768h-256z" unicode="P"/><glyph d="M0 256v1280h256v256h768v-256h-768v-1280h-256zM256 0v256h768v1280h256v-1280h-256v-256h-256v-256h-256v256h-256zM768 -256h512v-256h-512v256z" unicode="Q"/><glyph d="M0 0v1792h1024v-256h-768v-512h768v-256h-256v-256h-256v256h-256v-768h-256zM768 256v256h256v-256h-256zM1024 0v256h256v-256h-256zM1024 1024v512h256v-512h-256z" unicode="R"/><glyph d="M0 256v256h256v-256h-256zM0 1024v512h256v256h768v-256h-768v-512h-256zM256 0v256h768v-256h-768zM256 768v256h768v-256h-768zM1024 256v512h256v-512h-256zM1024 1280v256h256v-256h-256z" unicode="S"/><glyph d="M0 1536v256h1280v-256h-512v-1536h-256v1536h-512z" unicode="T"/><glyph d="M0 256v1536h256v-1536h-256zM256 0v256h768v-256h-768zM1024 256v1536h256v-1536h-256z" unicode="U"/><glyph d="M0 1024v768h256v-768h-256zM256 512v512h256v-512h-256zM512 0v512h256v-512h-256zM768 512v512h256v-512h-256zM1024 1024v768h256v-768h-256z" unicode="V"/><glyph d="M0 512v1280h256v-1280h-256zM256 0v512h256v-512h-256zM512 512v512h256v-512h256v-512h-256v512h-256zM1024 512v1280h256v-1280h-256z" unicode="W"/><glyph d="M0 0v512h256v256h256v256h-256v256h256v-256h256v256h256v512h256v-512h-256v-256h-256v-256h-256v-256h-256v-512h-256zM0 1280v512h256v-512h-256zM768 512v256h256v-256h-256zM1024 0v512h256v-512h-256z" unicode="X"/><glyph d="M0 1280v512h256v-512h-256zM256 1024v256h256v-256h-256zM512 0v1024h256v-1024h-256zM768 1024v256h256v-256h-256zM1024 1280v512h256v-512h-256z" unicode="Y"/><glyph d="M0 0v512h256v256h256v256h256v256h256v256h-1024v256h1280v-512h-256v-256h-256v-256h-256v-256h-256v-256h1024v-256h-1280z" unicode="Z"/><glyph d="M256 -512v2560h768v-256h-512v-2048h512v-256h-768z" unicode="["/><glyph d="M0 1536v512h256v-512h-256zM256 1024v512h256v-512h-256zM512 512v512h256v-512h-256zM768 0v512h256v-512h-256zM1024 0h256v-512h-256v512z" unicode="\"/><glyph d="M256 -256h512v2048h-512v256h768v-2560h-768v256z" unicode="]"/><glyph d="M0 1280v256h256v256h256v256h256v-256h-256v-256h-256v-256h-256zM768 1536v256h256v-256h-256zM1024 1280v256h256v-256h-256z" unicode="^"/><glyph d="M0 -256h1280v-256h-1280v256z" unicode="_"/><glyph d="M256 1536v256h256v-256h-256zM512 1280v256h256v-256h-256z" unicode="`"/><glyph d="M0 256v256h256v256h768v256h256v-1024h-1024v256h768v256h-768v-256h-256zM256 1024v256h768v-256h-768z" unicode="a"/><glyph d="M0 0v1792h256v-512h768v-256h-768v-768h768v-256h-1024zM1024 256v768h256v-768h-256z" unicode="b"/><glyph d="M0 256v768h256v256h768v-256h-768v-768h-256zM256 0v256h1024v-256h-1024z" unicode="c"/><glyph d="M0 256v768h256v256h768v512h256v-1792h-1024v256h768v768h-768v-768h-256z" unicode="d"/><glyph d="M0 256v768h256v256h768v-256h-768v-256h768v256h256v-512h-1024v-256h-256zM256 0v256h768v-256h-768z" unicode="e"/><glyph d="M0 1024v256h256v512h256v256h768v-256h-768v-512h512v-256h-512v-1024h-256v1024h-256z" unicode="f"/><glyph d="M0 256v768h256v256h1024v-1536h-256v256h-768v256h768v768h-768v-768h-256zM256 -256h768v-256h-768v256z" unicode="g"/><glyph d="M0 0v1792h256v-512h768v-256h-768v-1024h-256zM1024 0v1024h256v-1024h-256z" unicode="h"/><glyph d="M256 1024v256h512v-1024h256v-256h-512v1024h-256zM512 1536v256h256v-256h-256z" unicode="i"/><glyph d="M0 -256h768v1280h-256v256h512v-1536h-256v-256h-768v256zM768 1536v256h256v-256h-256z" unicode="j"/><glyph d="M0 0v1792h256v-1024h256v256h256v-512h-512v-512h-256zM768 256v256h256v-256h-256zM768 1024v256h256v-256h-256zM1024 0v256h256v-256h-256z" unicode="k"/><glyph d="M0 1536v256h512v-1536h-256v1280h-256zM512 0v256h768v-256h-768z" unicode="l"/><glyph d="M0 0v1280h512v-256h-256v-1024h-256zM512 256v768h256v-768h-256zM768 1024v256h256v-256h-256zM1024 0v1024h256v-1024h-256z" unicode="m"/><glyph d="M0 0v1280h1024v-256h-768v-1024h-256zM1024 0v1024h256v-1024h-256z" unicode="n"/><glyph d="M0 256v768h256v256h768v-256h-768v-768h-256zM256 0v256h768v-256h-768zM1024 256v768h256v-768h-256z" unicode="o"/><glyph d="M0 -512v1792h1024v-256h-768v-768h768v-256h-768v-512h-256zM1024 256v768h256v-768h-256z" unicode="p"/><glyph d="M0 256v768h256v-768h-256zM256 0v256h768v768h-768v256h1024v-1792h-256v512h-768z" unicode="q"/><glyph d="M0 0v1280h256v-256h256v256h768v-256h-768v-256h-256v-768h-256z" unicode="r"/><glyph d="M0 0v256h1024v256h-768v256h768v-256h256v-256h-256v-256h-1024zM0 768v256h256v256h768v-256h-768v-256h-256z" unicode="s"/><glyph d="M0 1024v256h256v512h256v-512h512v-256h-512v-768h-256v768h-256zM512 0v256h768v-256h-768z" unicode="t"/><glyph d="M0 256v1024h256v-1024h768v1024h256v-1280h-1024v256h-256z" unicode="u"/><glyph d="M0 768v512h256v-512h-256zM256 256v512h256v-512h-256zM512 0v256h256v-256h-256zM768 256v512h256v-512h-256zM1024 768v512h256v-512h-256z" unicode="v"/><glyph d="M0 512v768h256v-768h-256zM256 0v512h256v-512h-256zM512 512v256h256v-256h256v-512h-256v512h-256zM1024 512v768h256v-768h-256z" unicode="w"/><glyph d="M0 0v256h256v256h256v256h-256v256h256v-256h256v256h256v256h256v-256h-256v-256h-256v-256h-256v-256h-256v-256h-256zM0 1024v256h256v-256h-256zM768 256v256h256v-256h-256zM1024 0v256h256v-256h-256z" unicode="x"/><glyph d="M0 -256h512v512h-256v512h256v-512h256v512h256v512h256v-512h-256v-512h-256v-512h-256v-256h-512v256zM0 768v512h256v-512h-256z" unicode="y"/><glyph d="M0 0v256h256v256h256v256h256v256h-768v256h1280v-256h-256v-256h-256v-256h-256v-256h768v-256h-1280z" unicode="z"/><glyph d="M0 768v256h256v768h256v256h512v-256h-512v-768h-256v-256h-256zM256 -256v1024h256v-1024h-256zM512 -256h512v-256h-512v256z" unicode="{"/><glyph d="M512 -512v2560h256v-2560h-256z" unicode="|"/><glyph d="M256 -256h512v1024h256v256h-256v768h256v-768h256v-256h-256v-1024h-256v-256h-512v256zM256 1792v256h512v-256h-512z" unicode="}"/><glyph d="M0 512v256h256v-256h-256zM256 768v256h512v-256h256v256h256v-256h-256v-256h-512v256h-256z" unicode="~"/><glyph/><glyph d="M512 0v1280h256v-1280h-256zM512 1536v256h256v-256h-256z" unicode="¡"/><glyph d="M0 256v768h256v-768h-256zM256 0v256h256v768h-256v256h256v256h256v-256h256v-256h-256v-768h256v-256h-256v-256h-256v256h-256zM1024 256v256h256v-256h-256zM1024 768v256h256v-256h-256z" unicode="¢"/><glyph d="M0 0v256h256v512h-256v256h256v512h256v256h512v-256h-512v-512h512v-256h-512v-512h768v-256h-1280zM1024 1280v256h256v-256h-256z" unicode="£"/><glyph d="M0 256v256h256v768h768v256h256v-256h-256v-768h-768v-256h-256zM0 1280v256h256v-256h-256zM512 768h256v256h-256v-256zM1024 256v256h256v-256h-256z" unicode="¤"/><glyph d="M0 256v256h512v256h-512v256h256v256h256v-256h256v256h256v512h256v-512h-256v-256h256v-256h-512v-256h512v-256h-512v-256h-256v256h-512zM0 1280v512h256v-512h-256z" unicode="¥"/><glyph d="M512 -512v1024h256v-1024h-256zM512 1024v1024h256v-1024h-256z" unicode="¦"/><glyph d="M0 0h256v-256h-256v256zM0 512v512h256v256h768v-256h-768v-512h-256zM0 1280v512h256v256h768v-256h-768v-512h-256zM256 -256h768v-256h-768v256zM256 256v256h768v-256h-768zM1024 256h256v-512h-256v512zM1024 512v512h256v-512h-256zM1024 1536v256h256v-256h-256z" unicode="§"/><glyph d="M256 1280v256h256v-256h-256zM768 1280v256h256v-256h-256z" unicode="¨"/><glyph d="M0 512v768h256v256h256v256h768v-256h-768v-256h-256v-768h-256zM256 256v256h256v-256h-256zM512 0v256h768v-256h-768zM512 512v768h768v-256h-512v-256h512v-256h-768zM1280 256v256h256v-256h-256zM1280 1280v256h256v-256h-256zM1536 512v768h256v-768h-256z" unicode="©"/><glyph d="M0 512v256h1280v-256h-1280zM0 1280v256h256v256h768v256h256v-1024h-1024v256h768v256h-768v-256h-256zM256 2048v256h768v-256h-768z" unicode="ª"/><glyph d="M0 512v256h256v512h256v-512h-256v-256h-256zM256 0v512h256v-512h-256zM768 512v256h256v512h256v-512h-256v-256h-256zM1024 0v512h256v-512h-256z" unicode="«"/><glyph d="M0 1024v256h1280v-512h-256v256h-1024z" unicode="¬"/><glyph d="M256 768v256h768v-256h-768z" unicode="­"/><glyph d="M0 512v768h256v256h256v256h768v-256h-768v-256h-256v-768h-256zM256 256v256h256v-256h-256zM512 0v256h768v-256h-768zM512 512v768h512v-512h-256v-256h-256zM1024 512v256h256v-256h-256zM1280 256v256h256v-256h-256zM1280 1280v256h256v-256h-256zM1536 512v768 h256v-768h-256z" unicode="®"/><glyph d="M0 1536v256h1280v-256h-1280z" unicode="¯"/><glyph d="M0 1792v512h256v256h512v-256h-512v-512h-256zM256 1536v256h512v-256h-512zM768 1792v512h256v-512h-256z" unicode="°"/><glyph d="M0 0v256h1280v-256h-1280zM0 1024v256h512v512h256v-512h512v-256h-512v-512h-256v512h-512z" unicode="±"/><glyph d="M0 1280v512h256v256h512v256h256v-256h-256v-256h-512v-256h768v-256h-1024zM0 2304v256h768v-256h-768z" unicode="²"/><glyph d="M0 1280v256h768v256h256v-256h-256v-256h-768zM0 2304v256h768v-256h-768zM256 1792v256h512v256h256v-256h-256v-256h-512z" unicode="³"/><glyph d="M512 1280v256h256v256h256v-256h-256v-256h-256z" unicode="´"/><glyph d="M0 -512v1792h256v-1024h512v-256h-512v-512h-256zM768 256v256h256v768h256v-1280h-256v256h-256z" unicode="µ"/><glyph d="M0 1024v512h256v256h1024v-1792h-256v1536h-256v-1536h-256v768h-256v256h-256z" unicode="¶"/><glyph d="M256 512v512h512v-512h-512z" unicode="·"/><glyph d="M256 -256h256v256h256v-512h-512v256z" unicode="¸"/><glyph d="M0 1280v256h256v768h-256v256h512v-1024h256v-256h-768z" unicode="¹"/><glyph d="M0 1024v256h1024v-256h-1024zM0 1792v512h256v256h512v-256h-512v-512h-256zM256 1536v256h512v-256h-512zM768 1792v512h256v-512h-256z" unicode="º"/><glyph d="M0 0v512h256v256h256v-256h-256v-512h-256zM0 768v512h256v-512h-256zM768 0v512h256v256h256v-256h-256v-512h-256zM768 768v512h256v-512h-256z" unicode="»"/><glyph d="M0 1024v256h1280v-256h-1280zM256 0v256h256v256h256v256h256v-512h256v-256h-256v-256h-256v256h-512zM256 1536v256h256v256h-256v256h256v256h256v-768h256v-256h-768z" unicode="¼"/><glyph d="M0 1024v256h1280v-256h-1280zM256 0h256v256h256v256h256v-256h-256v-256h256v-256h-768v256zM256 256v256h256v256h256v-256h-256v-256h-256zM256 1536v256h256v256h-256v256h256v256h256v-768h256v-256h-768z" unicode="½"/><glyph d="M0 1024v256h1280v-256h-1280zM256 0v256h256v256h256v256h256v-512h256v-256h-256v-256h-256v256h-512zM256 1536v256h512v256h-256v256h-256v256h768v-256h256v-512h-256v-256h-768z" unicode="¾"/><glyph d="M0 256v512h256v256h256v256h256v-256h-256v-256h-256v-512h-256zM256 0v256h768v-256h-768zM512 1536v256h256v-256h-256zM1024 256v256h256v-256h-256z" unicode="¿"/><glyph d="M0 0v1024h256v512h256v256h256v-256h-256v-512h-256v-256h768v256h-256v512h256v-512h256v-1024h-256v512h-768v-512h-256zM256 2304v256h256v-256h-256zM512 2048v256h256v-256h-256z" unicode="À"/><glyph d="M0 0v1024h256v512h256v256h256v-256h-256v-512h-256v-256h768v256h-256v512h256v-512h256v-1024h-256v512h-768v-512h-256zM512 2048v256h256v256h256v-256h-256v-256h-256z" unicode="Á"/><glyph d="M0 0v1024h256v512h256v256h256v-256h-256v-512h-256v-256h768v256h-256v512h256v-512h256v-1024h-256v512h-768v-512h-256zM256 2048v256h256v256h256v-256h-256v-256h-256zM768 2048v256h256v-256h-256z" unicode="Â"/><glyph d="M0 0v1024h256v512h256v256h256v-256h-256v-512h-256v-256h768v256h-256v512h256v-512h256v-1024h-256v512h-768v-512h-256zM0 2048v256h256v-256h-256zM256 2304v256h512v-256h256v256h256v-256h-256v-256h-512v256h-256z" unicode="Ã"/><glyph d="M0 0v1024h256v512h256v256h256v-256h-256v-512h-256v-256h768v256h-256v512h256v-512h256v-1024h-256v512h-768v-512h-256zM256 2048v256h256v-256h-256zM768 2048v256h256v-256h-256z" unicode="Ä"/><glyph d="M0 0v1024h256v512h256v512h256v256h256v-256h-256v-512h-256v-512h-256v-256h768v256h-256v512h256v-512h256v-1024h-256v512h-768v-512h-256zM256 2048v256h256v256h256v-256h-256v-256h-256z" unicode="Å"/><glyph d="M0 0v1536h256v256h1024v-256h-512v-512h512v-256h-512v-512h512v-256h-768v768h-256v-768h-256zM256 1024h256v512h-256v-512z" unicode="Æ"/><glyph d="M0 256v1280h256v256h768v-256h-768v-1280h-256zM256 0v256h768v256h256v-256h-256v-256h-256v-512h-512v256h256v256h-256zM1024 1280v256h256v-256h-256z" unicode="Ç"/><glyph d="M0 0v1792h1280v-256h-1024v-512h768v-256h-768v-512h1024v-256h-1280zM256 2304v256h256v-256h-256zM512 2048v256h256v-256h-256z" unicode="È"/><glyph d="M0 0v1792h1280v-256h-1024v-512h768v-256h-768v-512h1024v-256h-1280zM512 2048v256h256v256h256v-256h-256v-256h-256z" unicode="É"/><glyph d="M0 0v1792h1280v-256h-1024v-512h768v-256h-768v-512h1024v-256h-1280zM256 2048v256h256v256h256v-256h-256v-256h-256zM768 2048v256h256v-256h-256z" unicode="Ê"/><glyph d="M0 0v1792h1280v-256h-1024v-512h768v-256h-768v-512h1024v-256h-1280zM256 2048v256h256v-256h-256zM768 2048v256h256v-256h-256z" unicode="Ë"/><glyph d="M0 0v256h512v1280h-512v256h1280v-256h-512v-1280h512v-256h-1280zM256 2304v256h256v-256h-256zM512 2048v256h256v-256h-256z" unicode="Ì"/><glyph d="M0 0v256h512v1280h-512v256h1280v-256h-512v-1280h512v-256h-1280zM512 2048v256h256v256h256v-256h-256v-256h-256z" unicode="Í"/><glyph d="M0 0v256h512v1280h-512v256h1280v-256h-512v-1280h512v-256h-1280zM256 2048v256h256v256h256v-256h-256v-256h-256zM768 2048v256h256v-256h-256z" unicode="Î"/><glyph d="M0 0v256h512v1280h-512v256h1280v-256h-512v-1280h512v-256h-1280zM256 2048v256h256v-256h-256zM768 2048v256h256v-256h-256z" unicode="Ï"/><glyph d="M-256 768v256h256v768h768v-256h-512v-512h256v-256h-256v-512h512v-256h-768v768h-256zM768 256v256h256v-256h-256zM768 1280v256h256v-256h-256zM1024 512v768h256v-768h-256z" unicode="Ð"/><glyph d="M0 0v1792h256v-256h256v-512h-256v-1024h-256zM0 2048v256h256v-256h-256zM256 2304v256h512v-256h256v256h256v-256h-256v-256h-512v256h-256zM512 768v256h256v-256h-256zM768 256v512h256v1024h256v-1792h-256v256h-256z" unicode="Ñ"/><glyph d="M0 256v1280h256v256h768v-256h-768v-1280h-256zM256 0v256h768v-256h-768zM256 2304v256h256v-256h-256zM512 2048v256h256v-256h-256zM1024 256v1280h256v-1280h-256z" unicode="Ò"/><glyph d="M0 256v1280h256v256h768v-256h-768v-1280h-256zM256 0v256h768v-256h-768zM512 2048v256h256v256h256v-256h-256v-256h-256zM1024 256v1280h256v-1280h-256z" unicode="Ó"/><glyph d="M0 256v1280h256v256h768v-256h-768v-1280h-256zM256 0v256h768v-256h-768zM256 2048v256h256v256h256v-256h-256v-256h-256zM768 2048v256h256v-256h-256zM1024 256v1280h256v-1280h-256z" unicode="Ô"/><glyph d="M0 256v1280h256v256h768v-256h-768v-1280h-256zM0 2048v256h256v-256h-256zM256 0v256h768v-256h-768zM256 2304v256h512v-256h256v256h256v-256h-256v-256h-512v256h-256zM1024 256v1280h256v-1280h-256z" unicode="Õ"/><glyph d="M0 256v1280h256v256h768v-256h-768v-1280h-256zM256 0v256h768v-256h-768zM256 2048v256h256v-256h-256zM768 2048v256h256v-256h-256zM1024 256v1280h256v-1280h-256z" unicode="Ö"/><glyph d="M0 256v256h256v256h256v256h-256v256h256v-256h256v256h256v256h256v-256h-256v-256h-256v-256h-256v-256h-256v-256h-256zM0 1280v256h256v-256h-256zM768 512v256h256v-256h-256zM1024 256v256h256v-256h-256z" unicode="×"/><glyph d="M0 -256v1792h256v256h768v256h256v-1792h-256v1024h-256v256h-512v-1024h256v-256h512v-256h-768v-256h-256zM512 512v768h256v-768h-256z" unicode="Ø"/><glyph d="M0 256v1536h256v-1536h-256zM256 0v256h768v-256h-768zM256 2304v256h256v-256h-256zM512 2048v256h256v-256h-256zM1024 256v1536h256v-1536h-256z" unicode="Ù"/><glyph d="M0 256v1536h256v-1536h-256zM256 0v256h768v-256h-768zM512 2048v256h256v256h256v-256h-256v-256h-256zM1024 256v1536h256v-1536h-256z" unicode="Ú"/><glyph d="M0 256v1536h256v-1536h-256zM256 0v256h768v-256h-768zM256 2048v256h256v256h256v-256h-256v-256h-256zM768 2048v256h256v-256h-256zM1024 256v1536h256v-1536h-256z" unicode="Û"/><glyph d="M0 256v1536h256v-1536h-256zM256 0v256h768v-256h-768zM256 2048v256h256v-256h-256zM768 2048v256h256v-256h-256zM1024 256v1536h256v-1536h-256z" unicode="Ü"/><glyph d="M0 1280v512h256v-512h-256zM256 1024v256h256v-256h-256zM512 0v1024h256v-1024h-256zM512 2048v256h256v256h256v-256h-256v-256h-256zM768 1024v256h256v-256h-256zM1024 1280v512h256v-512h-256z" unicode="Ý"/><glyph d="M0 0v1792h256v-256h768v-256h-768v-768h768v-256h-768v-256h-256zM1024 512v768h256v-768h-256z" unicode="Þ"/><glyph d="M0 0v1536h256v256h768v-256h-768v-1536h-256zM512 0v256h512v512h256v-512h-256v-256h-512zM768 768v256h256v512h256v-512h-256v-256h-256z" unicode="ß"/><glyph d="M0 256v256h256v256h768v256h256v-1024h-1024v256h768v256h-768v-256h-256zM256 1024v256h768v-256h-768zM256 1792v256h256v-256h-256zM512 1536v256h256v-256h-256z" unicode="à"/><glyph d="M0 256v256h256v256h768v256h256v-1024h-1024v256h768v256h-768v-256h-256zM256 1024v256h768v-256h-768zM512 1536v256h256v256h256v-256h-256v-256h-256z" unicode="á"/><glyph d="M0 256v256h256v256h768v256h256v-1024h-1024v256h768v256h-768v-256h-256zM256 1024v256h768v-256h-768zM256 1536v256h256v256h256v-256h-256v-256h-256zM768 1536v256h256v-256h-256z" unicode="â"/><glyph d="M0 256v256h256v256h768v256h256v-1024h-1024v256h768v256h-768v-256h-256zM0 1536v256h256v-256h-256zM256 1024v256h768v-256h-768zM256 1792v256h512v-256h256v256h256v-256h-256v-256h-512v256h-256z" unicode="ã"/><glyph d="M0 256v256h256v256h768v256h256v-1024h-1024v256h768v256h-768v-256h-256zM256 1024v256h768v-256h-768zM256 1536v256h256v-256h-256zM768 1536v256h256v-256h-256z" unicode="ä"/><glyph d="M0 256v256h256v256h768v256h256v-1024h-1024v256h768v256h-768v-256h-256zM256 1024v256h768v-256h-768zM256 1792v256h256v256h256v-256h-256v-256h-256zM512 1536v256h256v-256h-256zM768 1792v256h256v-256h-256z" unicode="å"/><glyph d="M0 0v768h512v256h256v256h512v-768h-512v-256h512v-256h-1280zM0 1024v256h512v-256h-512zM256 256h256v256h-256v-256zM768 768h256v256h-256v-256z" unicode="æ"/><glyph d="M0 256v768h256v256h768v-256h-768v-768h-256zM256 0v256h768v256h256v-256h-256v-256h-256v-512h-512v256h256v256h-256zM1024 768v256h256v-256h-256z" unicode="ç"/><glyph d="M0 256v768h256v256h768v-256h-768v-256h768v256h256v-512h-1024v-256h-256zM256 0v256h768v-256h-768zM256 1792v256h256v-256h-256zM512 1536v256h256v-256h-256z" unicode="è"/><glyph d="M0 256v768h256v256h768v-256h-768v-256h768v256h256v-512h-1024v-256h-256zM256 0v256h768v-256h-768zM512 1536v256h256v256h256v-256h-256v-256h-256z" unicode="é"/><glyph d="M0 256v768h256v256h768v-256h-768v-256h768v256h256v-512h-1024v-256h-256zM256 0v256h768v-256h-768zM256 1536v256h256v256h256v-256h-256v-256h-256zM768 1536v256h256v-256h-256z" unicode="ê"/><glyph d="M0 256v768h256v256h768v-256h-768v-256h768v256h256v-512h-1024v-256h-256zM256 0v256h768v-256h-768zM256 1536v256h256v-256h-256zM768 1536v256h256v-256h-256z" unicode="ë"/><glyph d="M256 1024v256h512v-1024h-256v768h-256zM256 1792v256h256v-256h-256zM512 1536v256h256v-256h-256zM768 0v256h512v-256h-512z" unicode="ì"/><glyph d="M256 1024v256h512v-1024h-256v768h-256zM512 1536v256h256v256h256v-256h-256v-256h-256zM768 0v256h512v-256h-512z" unicode="í"/><glyph d="M256 1024v256h512v-1024h-256v768h-256zM256 1536v256h256v256h256v-256h-256v-256h-256zM768 0v256h512v-256h-512zM768 1536v256h256v-256h-256z" unicode="î"/><glyph d="M256 1024v256h512v-1024h-256v768h-256zM256 1536v256h256v-256h-256zM768 0v256h512v-256h-512zM768 1536v256h256v-256h-256z" unicode="ï"/><glyph d="M0 256v256h256v256h768v256h-256v256h256v-256h256v-768h-256v256h-768v-256h-256zM256 0v256h768v-256h-768zM256 1024v256h256v256h256v256h256v-256h-256v-256h-256v-256h-256zM256 1536v256h256v-256h-256z" unicode="ð"/><glyph d="M0 0v1280h1024v-256h-768v-1024h-256zM0 1536v256h256v-256h-256zM256 1792v256h512v-256h256v256h256v-256h-256v-256h-512v256h-256zM1024 0v1024h256v-1024h-256z" unicode="ñ"/><glyph d="M0 256v768h256v256h768v-256h-768v-768h-256zM256 0v256h768v-256h-768zM256 1792v256h256v-256h-256zM512 1536v256h256v-256h-256zM1024 256v768h256v-768h-256z" unicode="ò"/><glyph d="M0 256v768h256v256h768v-256h-768v-768h-256zM256 0v256h768v-256h-768zM512 1536v256h256v256h256v-256h-256v-256h-256zM1024 256v768h256v-768h-256z" unicode="ó"/><glyph d="M0 256v768h256v256h768v-256h-768v-768h-256zM256 0v256h768v-256h-768zM256 1536v256h256v256h256v-256h-256v-256h-256zM768 1536v256h256v-256h-256zM1024 256v768h256v-768h-256z" unicode="ô"/><glyph d="M0 256v768h256v256h768v-256h-768v-768h-256zM0 1536v256h256v-256h-256zM256 0v256h768v-256h-768zM256 1792v256h512v-256h256v256h256v-256h-256v-256h-512v256h-256zM1024 256v768h256v-768h-256z" unicode="õ"/><glyph d="M0 256v768h256v256h768v-256h-768v-768h-256zM256 0v256h768v-256h-768zM256 1536v256h256v-256h-256zM768 1536v256h256v-256h-256zM1024 256v768h256v-768h-256z" unicode="ö"/><glyph d="M0 768v256h1280v-256h-1280zM512 256v256h256v-256h-256zM512 1280v256h256v-256h-256z" unicode="÷"/><glyph d="M0 -256v1280h256v256h768v256h256v-1280h-256v512h-256v256h-512v-512h256v-256h512v-256h-768v-256h-256zM512 512v256h256v-256h-256z" unicode="ø"/><glyph d="M0 256v1024h256v-1024h768v1024h256v-1280h-1024v256h-256zM256 1792v256h256v-256h-256zM512 1536v256h256v-256h-256z" unicode="ù"/><glyph d="M0 256v1024h256v-1024h768v1024h256v-1280h-1024v256h-256zM512 1536v256h256v256h256v-256h-256v-256h-256z" unicode="ú"/><glyph d="M0 256v1024h256v-1024h768v1024h256v-1280h-1024v256h-256zM256 1536v256h256v256h256v-256h-256v-256h-256zM768 1536v256h256v-256h-256z" unicode="û"/><glyph d="M0 256v1024h256v-1024h768v1024h256v-1280h-1024v256h-256zM256 1536v256h256v-256h-256zM768 1536v256h256v-256h-256z" unicode="ü"/><glyph d="M0 -256h512v512h-256v512h256v-512h256v512h256v512h256v-512h-256v-512h-256v-512h-256v-256h-512v256zM0 768v512h256v-512h-256zM512 1536v256h256v256h256v-256h-256v-256h-256z" unicode="ý"/><glyph d="M0 -512v2304h256v-512h768v-256h-768v-768h768v-256h-768v-512h-256zM1024 256v768h256v-768h-256z" unicode="þ"/><glyph d="M0 -256h512v512h-256v512h256v-512h256v512h256v512h256v-512h-256v-512h-256v-512h-256v-256h-512v256zM0 768v512h256v-512h-256zM256 1536v256h256v-256h-256zM768 1536v256h256v-256h-256z" unicode="ÿ"/><glyph d="M0 256v1280h256v256h256v-256h-256v-1280h-256zM256 0v256h256v-256h-256zM512 256v1280h256v-512h512v-256h-512v-512h-256zM768 0v256h512v-256h-512zM768 1536v256h512v-256h-512z" unicode="Œ"/><glyph d="M0 256v768h256v256h256v-256h-256v-768h-256zM256 0v256h256v-256h-256zM512 256v768h256v-256h256v256h256v-512h-512v-256h-256zM768 0v256h256v-256h-256zM768 1024v256h256v-256h-256z" unicode="œ"/><glyph d="M0 1280v512h256v-512h-256zM256 1024v256h256v-256h-256zM256 2048v256h256v-256h-256zM512 0v1024h256v-1024h-256zM768 1024v256h256v-256h-256zM768 2048v256h256v-256h-256zM1024 1280v512h256v-512h-256z" unicode="Ÿ"/><glyph d="M0 0v256h256v256h256v-512h-512zM0 512v768h256v256h768v-256h-768v-768h-256zM768 0v512h256v768h256v-768h-256v-256h256v-256h-512z" unicode="Ω"/><glyph d="M0 256v768h256v256h512v-256h-512v-768h-256zM256 0v256h512v-256h-512zM768 256v768h256v-768h-256zM1024 0v256h256v-256h-256zM1024 1024v256h256v-256h-256z" unicode="α"/><glyph d="M0 1024v256h1280v-256h-256v-768h256v-256h-512v1024h-256v-1024h-256v1024h-256z" unicode="π"/><glyph d="M0 768v768h256v-768h-256zM256 512v256h256v1024h512v-256h-256v-768h256v-256h-256v-512h-256v512h-256zM1024 768v768h256v-768h-256z" unicode="φ"/><glyph/><glyph/><glyph/><glyph/><glyph/><glyph/><glyph/><glyph/><glyph/><glyph/><glyph/><glyph d="M256 512v256h768v-256h-768z" unicode="‐"/><glyph d="M256 512v256h768v-256h-768z" unicode="‑"/><glyph d="M256 512v256h768v-256h-768z" unicode="‒"/><glyph d="M256 512v256h1024v-256h-1024z" unicode="–"/><glyph d="M0 768v256h1280v-256h-1280z" unicode="—"/><glyph d="M256 768v768h256v256h256v-256h-256v-256h256v-512h-512z" unicode="‘"/><glyph d="M256 768v256h256v256h-256v512h512v-768h-256v-256h-256z" unicode="’"/><glyph d="M256 0v512h512v-768h-256v-256h-256v256h256v256h-256z" unicode="‚"/><glyph d="M256 1024v768h512v-512h-256v-256h-256zM512 768v256h256v-256h-256z" unicode="‛"/><glyph d="M0 768v768h256v256h256v-256h-256v-256h256v-512h-512zM768 768v768h256v256h256v-256h-256v-256h256v-512h-512z" unicode="“"/><glyph d="M0 768v256h256v256h-256v512h512v-768h-256v-256h-256zM768 768v256h256v256h-256v512h512v-768h-256v-256h-256z" unicode="”"/><glyph d="M0 0v512h512v-768h-256v-256h-256v256h256v256h-256zM768 0v512h512v-768h-256v-256h-256v256h256v256h-256z" unicode="„"/><glyph d="M0 1024v768h512v-512h-256v-256h-256zM256 768v256h256v-256h-256zM768 1024v768h512v-512h-256v-256h-256zM1024 768v256h256v-256h-256z" unicode="‟"/><glyph d="M256 1024v256h256v256h256v-256h256v-256h-256v-1024h-256v1024h-256z" unicode="†"/><glyph d="M256 256v256h256v512h-256v256h256v256h256v-256h256v-256h-256v-512h256v-256h-256v-256h-256v256h-256z" unicode="‡"/><glyph d="M0 256v512h256v256h512v-256h256v-512h-256v-256h-512v256h-256z" unicode="•"/><glyph d="M0 0v1280h256v-256h256v-256h256v-256h-256v-256h-256v-256h-256z" unicode="‣"/><glyph d="M0 0v256h256v-256h-256zM512 0v256h256v-256h-256zM1024 0v256h256v-256h-256z" unicode="…"/><glyph/><glyph d="M0 768v256h256v256h256v-256h-256v-256h-256zM256 512v256h256v-256h-256z" unicode="‹"/><glyph d="M768 512v256h256v256h256v-256h-256v-256h-256zM768 1024v256h256v-256h-256z" unicode="›"/><glyph/><glyph d="M0 512v256h256v256h-256v256h256v256h256v256h768v-256h-768v-256h512v-256h-512v-256h512v-256h-512v-256h-256v256h-256zM512 0v256h768v-256h-768z" unicode="€"/><glyph d="M0 1536v256h1536v-768h-256v512h-256v-512h-256v512h-256v-512h-256v512h-256z" unicode="™"/><glyph d="M0 512v256h256v256h256v256h256v-256h-256v-256h1024v-256h-1024v-256h-256v256h-256zM512 0v256h256v-256h-256z" unicode="←"/><glyph d="M0 768v256h256v-256h-256zM256 1024v256h256v256h256v-256h256v-256h-256v-1024h-256v1024h-256zM1024 768v256h256v-256h-256z" unicode="↑"/><glyph d="M0 512v256h1024v256h256v-256h256v-256h-256v-256h-256v-256h-256v256h256v256h-1024zM768 1024v256h256v-256h-256z" unicode="→"/><glyph d="M0 512v256h256v-256h-256zM256 256v256h256v1024h256v-1024h256v-256h-256v-256h-256v256h-256zM1024 512v256h256v-256h-256z" unicode="↓"/><glyph d="M-256 512v256h256v256h256v256h256v-256h-256v-256h1024v256h256v-256h256v-256h-256v-256h-256v256h-1024v-256h-256v256h-256zM256 0v256h256v-256h-256zM1024 0v256h256v-256h-256zM1024 1024v256h256v-256h-256z" unicode="↔"/><glyph d="M0 0v256h256v-256h-256zM0 768v256h256v-256h-256zM256 0h256v1024h-256v256h256v256h256v-256h256v-256h-256v-1024h256v-256h-256v-256h-256v256h-256v256zM1024 0v256h256v-256h-256zM1024 768v256h256v-256h-256z" unicode="↕"/><glyph d="M0 256v1024h1024v-256h-512v-256h-256v-512h-256zM512 512v256h256v-256h-256zM768 256v256h256v-256h-256zM1024 0v256h256v-256h-256z" unicode="↖"/><glyph d="M0 0v256h256v256h256v256h256v-256h-256v-256h-256v-256h-256zM256 1024v256h1024v-1024h-256v512h-256v256h-512z" unicode="↗"/><glyph d="M0 1024v256h256v-256h-256zM256 0v256h512v256h256v512h256v-1024h-1024zM256 768v256h256v-256h-256zM512 512v256h256v-256h-256z" unicode="↘"/><glyph d="M0 0v1024h256v-512h256v-256h512v-256h-1024zM512 512v256h256v-256h-256zM768 768v256h256v-256h-256zM1024 1024v256h256v-256h-256z" unicode="↙"/><glyph d="M0 512v256h256v256h256v-256h768v512h256v-1280h-256v512h-768v-256h-256v256h-256zM512 0v256h256v-256h-256zM512 1024v256h256v-256h-256z" unicode="↤"/><glyph d="M0 0v256h512v768h-256v256h256v256h256v-256h256v-256h-256v-768h512v-256h-1280zM0 768v256h256v-256h-256zM1024 768v256h256v-256h-256z" unicode="↥"/><glyph d="M0 0v1280h256v-512h768v256h256v-256h256v-256h-256v-256h-256v256h-768v-512h-256zM768 0v256h256v-256h-256zM768 1024v256h256v-256h-256z" unicode="↦"/><glyph d="M0 512v256h256v-256h-256zM0 1280v256h1280v-256h-512v-768h256v-256h-256v-256h-256v256h-256v256h256v768h-512zM1024 512v256h256v-256h-256z" unicode="↧"/><glyph d="M0 0v256h256v256h256v-256h512v1280h256v-1536h-768v-256h-256v256h-256zM512 -256h256v-256h-256v256zM512 512v256h256v-256h-256z" unicode="↲"/><glyph d="M0 512v256h256v256h256v-256h768v768h256v-1024h-1024v-256h-256v256h-256zM512 0v256h256v-256h-256zM512 1024v256h256v-256h-256z" unicode="↵"/><glyph d="M-256 1024v256h1792v-256h-1792z" unicode="─"/><glyph d="M-256 768v512h1792v-512h-1792z" unicode="━"/><glyph d="M512 -512v3072h256v-3072h-256z" unicode="│"/><glyph d="M512 -512v3072h512v-3072h-512z" unicode="┃"/><glyph d="M-256 1024v256h256v-256h-256zM512 1024v256h256v-256h-256zM1280 1024v256h256v-256h-256z" unicode="┄"/><glyph d="M-256 768v512h256v-512h-256zM512 768v512h256v-512h-256zM1280 768v512h256v-512h-256z" unicode="┅"/><glyph d="M512 256h256v-768h-256v768zM512 512v1024h256v-1024h-256zM512 1792v768h256v-768h-256z" unicode="┆"/><glyph d="M512 256h512v-768h-512v768zM512 512v1024h512v-1024h-512zM512 1792v768h512v-768h-512z" unicode="┇"/><glyph d="M-256 1024v256h256v-256h-256zM256 1024v256h256v-256h-256zM768 1024v256h256v-256h-256zM1280 1024v256h256v-256h-256z" unicode="┈"/><glyph d="M-256 768v512h256v-512h-256zM256 768v512h256v-512h-256zM768 768v512h256v-512h-256zM1280 768v512h256v-512h-256z" unicode="┉"/><glyph d="M512 0h256v-512h-256v512zM512 256v512h256v-512h-256zM512 1280v512h256v-512h-256zM512 2048v512h256v-512h-256z" unicode="┊"/><glyph d="M512 0h512v-512h-512v512zM512 256v512h512v-512h-512zM512 1280v512h512v-512h-512zM512 2048v512h512v-512h-512z" unicode="┋"/><glyph d="M512 -512v1792h1024v-256h-768v-1536h-256z" unicode="┌"/><glyph d="M512 -512v1792h1024v-512h-768v-1280h-256z" unicode="┍"/><glyph d="M512 -512v1792h1024v-256h-512v-1536h-512z" unicode="┎"/><glyph d="M512 -512v1792h1024v-512h-512v-1280h-512z" unicode="┏"/><glyph d="M-256 1024v256h1024v-1792h-256v1536h-768z" unicode="┐"/><glyph d="M-256 768v512h1024v-1792h-256v1280h-768z" unicode="┑"/><glyph d="M-256 1024v256h1280v-1792h-512v1536h-768z" unicode="┒"/><glyph d="M-256 768v512h1280v-1792h-512v1280h-768z" unicode="┓"/><glyph d="M512 1024v1536h256v-1280h768v-256h-1024z" unicode="└"/><glyph d="M512 768v1792h256v-1280h768v-512h-1024z" unicode="┕"/><glyph d="M512 1024v1536h512v-1280h512v-256h-1024z" unicode="┖"/><glyph d="M512 768v1792h512v-1280h512v-512h-1024z" unicode="┗"/><glyph d="M-256 1024v256h768v1280h256v-1536h-1024z" unicode="┘"/><glyph d="M-256 768v512h768v1280h256v-1792h-1024z" unicode="┙"/><glyph d="M-256 1024v256h768v1280h512v-1536h-1280z" unicode="┚"/><glyph d="M-256 768v512h768v1280h512v-1792h-1280z" unicode="┛"/><glyph d="M512 -512v3072h256v-1280h768v-256h-768v-1536h-256z" unicode="├"/><glyph d="M512 -512v3072h256v-1280h768v-512h-768v-1280h-256z" unicode="┝"/><glyph d="M512 -512v3072h512v-1280h512v-256h-768v-1536h-256z" unicode="┞"/><glyph d="M512 -512v3072h256v-1280h768v-256h-512v-1536h-512z" unicode="┟"/><glyph d="M512 -512v3072h512v-1280h512v-256h-512v-1536h-512z" unicode="┠"/><glyph d="M512 -512v3072h512v-1280h512v-512h-768v-1280h-256z" unicode="┡"/><glyph d="M512 -512v3072h256v-1280h768v-512h-512v-1280h-512z" unicode="┢"/><glyph d="M512 -512v3072h512v-1280h512v-512h-512v-1280h-512z" unicode="┣"/><glyph d="M-256 1024v256h768v1280h256v-3072h-256v1536h-768z" unicode="┤"/><glyph d="M-256 768v512h768v1280h256v-3072h-256v1280h-768z" unicode="┥"/><glyph d="M-256 1024v256h768v1280h512v-1536h-256v-1536h-256v1536h-768z" unicode="┦"/><glyph d="M-256 1024v256h768v1280h256v-1536h256v-1536h-512v1536h-768z" unicode="┧"/><glyph d="M-256 1024v256h768v1280h512v-3072h-512v1536h-768z" unicode="┨"/><glyph d="M-256 768v512h768v1280h512v-1792h-256v-1280h-256v1280h-768z" unicode="┩"/><glyph d="M-256 768v512h768v1280h256v-1280h256v-1792h-512v1280h-768z" unicode="┪"/><glyph d="M-256 768v512h768v1280h512v-3072h-512v1280h-768z" unicode="┫"/><glyph d="M-256 1024v256h1792v-256h-768v-1536h-256v1536h-768z" unicode="┬"/><glyph d="M-256 768v512h1792v-256h-768v-1536h-256v1280h-768z" unicode="┭"/><glyph d="M-256 1024v256h1792v-512h-768v-1280h-256v1536h-768z" unicode="┮"/><glyph d="M-256 768v512h1792v-512h-768v-1280h-256v1280h-768z" unicode="┯"/><glyph d="M-256 1024v256h1792v-256h-512v-1536h-512v1536h-768z" unicode="┰"/><glyph d="M-256 768v512h1792v-256h-512v-1536h-512v1280h-768z" unicode="┱"/><glyph d="M-256 1024v256h1792v-512h-512v-1280h-512v1536h-768z" unicode="┲"/><glyph d="M-256 768v512h1792v-512h-512v-1280h-512v1280h-768z" unicode="┳"/><glyph d="M-256 1024v256h768v1280h256v-1280h768v-256h-1792z" unicode="┴"/><glyph d="M-256 768v512h768v1280h256v-1280h768v-256h-768v-256h-1024z" unicode="┵"/><glyph d="M-256 1024v256h768v1280h256v-1280h768v-512h-1024v256h-768z" unicode="┶"/><glyph d="M-256 768v512h768v1280h256v-1280h768v-512h-1792z" unicode="┷"/><glyph d="M-256 1024v256h768v1280h512v-1280h512v-256h-1792z" unicode="┸"/><glyph d="M-256 768v512h768v1280h512v-1280h512v-256h-512v-256h-1280z" unicode="┹"/><glyph d="M-256 1024v256h768v1280h512v-1280h512v-512h-1024v256h-768z" unicode="┺"/><glyph d="M-256 768v512h768v1280h512v-1280h512v-512h-1792z" unicode="┻"/><glyph d="M-256 1024v256h768v1280h256v-1280h768v-256h-768v-1536h-256v1536h-768z" unicode="┼"/><glyph d="M-256 768v512h768v1280h256v-1280h768v-256h-768v-1536h-256v1280h-768z" unicode="┽"/><glyph d="M-256 1024v256h768v1280h256v-1280h768v-512h-768v-1280h-256v1536h-768z" unicode="┾"/><glyph d="M-256 768v512h768v1280h256v-1280h768v-512h-768v-1280h-256v1280h-768z" unicode="┿"/><glyph d="M-256 1024v256h768v1280h512v-1280h512v-256h-768v-1536h-256v1536h-768z" unicode="╀"/><glyph d="M-256 1024v256h768v1280h256v-1280h768v-256h-512v-1536h-512v1536h-768z" unicode="╁"/><glyph d="M-256 1024v256h768v1280h512v-1280h512v-256h-512v-1536h-512v1536h-768z" unicode="╂"/><glyph d="M-256 768v512h768v1280h512v-1280h512v-256h-512v-256h-256v-1280h-256v1280h-768z" unicode="╃"/><glyph d="M-256 1024v256h768v1280h512v-1280h512v-512h-768v-1280h-256v1536h-768z" unicode="╄"/><glyph d="M-256 768v512h768v1280h256v-1280h768v-256h-512v-1536h-512v1280h-768z" unicode="╅"/><glyph d="M-256 1024v256h768v1280h256v-1280h768v-512h-512v-1280h-512v1536h-768z" unicode="╆"/><glyph d="M-256 768v512h768v1280h512v-1280h512v-512h-768v-1280h-256v1280h-768z" unicode="╇"/><glyph d="M-256 768v512h768v1280h256v-1280h768v-512h-512v-1280h-512v1280h-768z" unicode="╈"/><glyph d="M-256 768v512h768v1280h512v-1280h512v-256h-512v-1536h-512v1280h-768z" unicode="╉"/><glyph d="M-256 1024v256h768v1280h512v-1280h512v-512h-512v-1280h-512v1536h-768z" unicode="╊"/><glyph d="M-256 768v512h768v1280h512v-1280h512v-512h-512v-1280h-512v1280h-768z" unicode="╋"/><glyph d="M-256 1024v256h768v-256h-768zM768 1024v256h768v-256h-768z" unicode="╌"/><glyph d="M-256 768v512h768v-512h-768zM768 768v512h768v-512h-768z" unicode="╍"/><glyph d="M512 -512v1280h256v-1280h-256zM512 1280v1280h256v-1280h-256z" unicode="╎"/><glyph d="M512 -512v1280h512v-1280h-512zM512 1280v1280h512v-1280h-512z" unicode="╏"/><glyph d="M-256 768v256h1792v-256h-1792zM-256 1280v256h1792v-256h-1792z" unicode="═"/><glyph d="M256 -512v3072h256v-3072h-256zM768 -512v3072h256v-3072h-256z" unicode="║"/><glyph d="M512 -512v2048h1024v-256h-768v-256h768v-256h-768v-1280h-256z" unicode="╒"/><glyph d="M256 -512v1792h1280v-256h-512v-1536h-256v1536h-256v-1536h-256z" unicode="╓"/><glyph d="M256 -512v2048h1280v-256h-1024v-1792h-256zM768 -512v1536h768v-256h-512v-1280h-256z" unicode="╔"/><glyph d="M-256 768v256h768v256h-768v256h1024v-2048h-256v1280h-768z" unicode="╕"/><glyph d="M-256 1024v256h1280v-1792h-256v1536h-256v-1536h-256v1536h-512z" unicode="╖"/><glyph d="M-256 768v256h768v-1536h-256v1280h-512zM-256 1280v256h1280v-2048h-256v1792h-1024z" unicode="╗"/><glyph d="M512 768v1792h256v-1024h768v-256h-768v-256h768v-256h-1024z" unicode="╘"/><glyph d="M256 1024v1536h256v-1280h256v1280h256v-1280h512v-256h-1280z" unicode="╙"/><glyph d="M256 768v1792h256v-1536h1024v-256h-1280zM768 1280v1280h256v-1024h512v-256h-768z" unicode="╚"/><glyph d="M-256 768v256h768v256h-768v256h768v1024h256v-1792h-1024z" unicode="╛"/><glyph d="M-256 1024v256h512v1280h256v-1280h256v1280h256v-1536h-1280z" unicode="╜"/><glyph d="M-256 768v256h1024v1536h256v-1792h-1280zM-256 1280v256h512v1024h256v-1280h-768z" unicode="╝"/><glyph d="M512 -512v3072h256v-1024h768v-256h-768v-256h768v-256h-768v-1280h-256z" unicode="╞"/><glyph d="M256 -512v3072h256v-3072h-256zM768 -512v3072h256v-1280h512v-256h-512v-1536h-256z" unicode="╟"/><glyph d="M256 -512v3072h256v-3072h-256zM768 -512v1536h768v-256h-512v-1280h-256zM768 1280v1280h256v-1024h512v-256h-768z" unicode="╠"/><glyph d="M-256 768v256h768v256h-768v256h768v1024h256v-3072h-256v1280h-768z" unicode="╡"/><glyph d="M-256 1024v256h512v1280h256v-3072h-256v1536h-512zM768 -512v3072h256v-3072h-256z" unicode="╢"/><glyph d="M-256 768v256h768v-1536h-256v1280h-512zM-256 1280v256h512v1024h256v-1280h-768zM768 -512v3072h256v-3072h-256z" unicode="╣"/><glyph d="M-256 768v256h1792v-256h-768v-1280h-256v1280h-768zM-256 1280v256h1792v-256h-1792z" unicode="╤"/><glyph d="M-256 1024v256h1792v-256h-512v-1536h-256v1536h-256v-1536h-256v1536h-512z" unicode="╥"/><glyph d="M-256 768v256h768v-1536h-256v1280h-512zM-256 1280v256h1792v-256h-1792zM768 -512v1536h768v-256h-512v-1280h-256z" unicode="╦"/><glyph d="M-256 768v256h1792v-256h-1792zM-256 1280v256h768v1024h256v-1024h768v-256h-1792z" unicode="╧"/><glyph d="M-256 1024v256h512v1280h256v-1280h256v1280h256v-1280h512v-256h-1792z" unicode="╨"/><glyph d="M-256 768v256h1792v-256h-1792zM-256 1280v256h512v1024h256v-1280h-768zM768 1280v1280h256v-1024h512v-256h-768z" unicode="╩"/><glyph d="M-256 768v256h768v256h-768v256h768v1024h256v-1024h768v-256h-768v-256h768v-256h-768v-1280h-256v1280h-768z" unicode="╪"/><glyph d="M-256 1024v256h512v1280h256v-1280h256v1280h256v-1280h512v-256h-512v-1536h-256v1536h-256v-1536h-256v1536h-512z" unicode="╫"/><glyph d="M-256 768v256h768v-1536h-256v1280h-512zM-256 1280v256h512v1024h256v-1280h-768zM768 -512v1536h768v-256h-512v-1280h-256zM768 1280v1280h256v-1024h512v-256h-768z" unicode="╬"/><glyph d="M512 -512v1280h256v256h256v256h512v-256h-512v-256h-256v-1280h-256z" unicode="╭"/><glyph d="M-256 1024v256h512v-256h-512zM256 768v256h256v-256h-256zM512 -512v1280h256v-1280h-256z" unicode="╮"/><glyph d="M-256 1024v256h512v256h256v1024h256v-1024h-256v-256h-256v-256h-512z" unicode="╯"/><glyph d="M512 1536v1024h256v-1024h-256zM768 1280v256h256v-256h-256zM1024 1024v256h512v-256h-512z" unicode="╰"/><glyph d="M0 0h256v512h256v512h256v512h256v512h256v512h256v-512h-256v-512h-256v-512h-256v-512h-256v-512h-256v-512h-256v512z" unicode="╱"/><glyph d="M0 2048v512h256v-512h-256zM256 1536v512h256v-512h-256zM512 1024v512h256v-512h-256zM768 512v512h256v-512h-256zM1024 0v512h256v-512h-256zM1280 0h256v-512h-256v512z" unicode="╲"/><glyph d="M0 0h256v512h256v1024h-256v512h256v-512h512v512h256v512h256v-512h-256v-512h-256v-1024h-512v-512h-256v-512h-256v512zM0 2048v512h256v-512h-256zM1024 0v512h256v-512h-256zM1280 0h256v-512h-256v512z" unicode="╳"/><glyph d="M-256 1024v256h768v-256h-768z" unicode="╴"/><glyph d="M512 1024v1536h256v-1536h-256z" unicode="╵"/><glyph d="M768 1024v256h768v-256h-768z" unicode="╶"/><glyph d="M512 -512v1792h256v-1792h-256z" unicode="╷"/><glyph d="M-256 768v512h768v-512h-768z" unicode="╸"/><glyph d="M512 1024v1536h512v-1536h-512z" unicode="╹"/><glyph d="M768 768v512h768v-512h-768z" unicode="╺"/><glyph d="M512 -512v1792h512v-1792h-512z" unicode="╻"/><glyph d="M-256 1024v256h1792v-512h-768v256h-1024z" unicode="╼"/><glyph d="M512 -512v3072h256v-1280h256v-1792h-512z" unicode="╽"/><glyph d="M-256 768v512h1792v-256h-1024v-256h-768z" unicode="╾"/><glyph d="M512 -512v3072h512v-1536h-256v-1536h-256z" unicode="╿"/><glyph d="M0 1024v1536h1536v-1536h-1536z" unicode="▀"/><glyph d="M0 -256h1536v-256h-1536v256z" unicode="▁"/><glyph d="M0 0h1536v-512h-1536v512z" unicode="▂"/><glyph d="M0 -512v1024h1536v-1024h-1536z" unicode="▃"/><glyph d="M0 -512v1536h1536v-1536h-1536z" unicode="▄"/><glyph d="M0 -512v2048h1536v-2048h-1536z" unicode="▅"/><glyph d="M0 -512v2560h1536v-2560h-1536z" unicode="▆"/><glyph d="M0 -512v2816h1536v-2816h-1536z" unicode="▇"/><glyph d="M0 -512v3072h1536v-3072h-1536z" unicode="█"/><glyph d="M0 -512v3072h1280v-3072h-1280z" unicode="▉"/><glyph d="M0 -512v3072h1024v-3072h-1024z" unicode="▊"/><glyph d="M0 -512v3072h768v-3072h-768z" unicode="▋"/><glyph d="M0 -512v3072h768v-3072h-768z" unicode="▌"/><glyph d="M0 -512v3072h512v-3072h-512z" unicode="▍"/><glyph d="M0 -512v3072h256v-3072h-256z" unicode="▎"/><glyph d="M0 -512v3072h256v-3072h-256z" unicode="▏"/><glyph d="M768 -512v3072h768v-3072h-768z" unicode="▐"/><glyph d="M0 256v256h256v-256h-256zM0 1280v256h256v-256h-256zM0 2304v256h256v-256h-256zM256 0h256v-256h-256v256zM256 768v256h256v-256h-256zM256 1792v256h256v-256h-256zM512 256v256h256v-256h-256zM512 1280v256h256v-256h-256zM512 2304v256h256v-256h-256zM768 0h256 v-256h-256v256zM768 768v256h256v-256h-256zM768 1792v256h256v-256h-256zM1024 256v256h256v-256h-256zM1024 1280v256h256v-256h-256zM1024 2304v256h256v-256h-256zM1280 0h256v-256h-256v256zM1280 768v256h256v-256h-256zM1280 1792v256h256v-256h-256z" unicode="░"/><glyph d="M0 0h256v256h256v256h256v256h256v256h256v256h256v-256h-256v-256h-256v-256h-256v-256h-256v-256h-256v-256h-256v256zM0 256v256h256v256h256v256h256v256h256v256h256v256h256v-256h-256v-256h-256v-256h-256v-256h-256v-256h-256v-256h-256zM0 768v256h256v256h256 v256h256v256h256v256h256v256h256v-256h-256v-256h-256v-256h-256v-256h-256v-256h-256v-256h-256zM0 1280v256h256v256h256v256h256v256h256v256h256v-256h-256v-256h-256v-256h-256v-256h-256v-256h-256zM0 1792v256h256v256h256v256h256v-256h-256v-256h-256v-256h-256z M0 2304v256h256v-256h-256zM256 -256h256v-256h-256v256zM512 0h256v-256h-256v256zM768 0v256h256v-256h-256zM768 -256h256v-256h-256v256zM1024 0h256v-256h-256v256zM1024 256v256h256v-256h-256zM1280 0v256h256v-256h-256zM1280 -256h256v-256h-256v256zM1280 512v256 h256v-256h-256z" unicode="▒"/><glyph d="M0 0v768h256v256h-256v768h256v256h-256v512h256v-256h256v256h256v-256h256v256h256v-256h256v-768h-256v-256h256v-768h-256v-256h256v-768h-1536v256h256v256h-256zM256 256h256v256h-256v-256zM256 1280h256v256h-256v-256zM512 0v-256h256v256h-256zM512 768h256 v256h-256v-256zM512 1792h256v256h-256v-256zM768 256h256v256h-256v-256zM768 1280h256v256h-256v-256zM1024 0v-256h256v256h-256zM1024 768h256v256h-256v-256zM1024 1792h256v256h-256v-256z" unicode="▓"/><glyph d="M0 2304v256h1536v-256h-1536z" unicode="▔"/><glyph d="M1280 -512v3072h256v-3072h-256z" unicode="▕"/><glyph d="M0 -512v1536h768v-1536h-768z" unicode="▖"/><glyph d="M768 -512v1536h768v-1536h-768z" unicode="▗"/><glyph d="M0 1024v1536h768v-1536h-768z" unicode="▘"/><glyph d="M0 -512v3072h768v-1536h768v-1536h-1536z" unicode="▙"/><glyph d="M0 1024v1536h768v-1536h-768zM768 -512v1536h768v-1536h-768z" unicode="▚"/><glyph d="M0 -512v3072h1536v-1536h-768v-1536h-768z" unicode="▛"/><glyph d="M0 1024v1536h1536v-3072h-768v1536h-768z" unicode="▜"/><glyph d="M768 1024v1536h768v-1536h-768z" unicode="▝"/><glyph d="M0 -512v1536h768v1536h768v-1536h-768v-1536h-768z" unicode="▞"/><glyph d="M0 -512v1536h768v1536h768v-3072h-1536z" unicode="▟"/><glyph d="M0 256v1536h1536v-1536h-1536z" unicode="■"/><glyph d="M0 256v1536h1536v-1536h-1536zM256 512h1024v1024h-1024v-1024z" unicode="□"/><glyph d="M0 512v1024h256v256h1024v-256h-1024v-1024h-256zM256 256v256h1024v-256h-1024zM1280 512v1024h256v-1024h-256z" unicode="▢"/><glyph d="M0 256v1536h1536v-1536h-1536zM256 512h1024v1024h-1024v-1024zM512 768v512h512v-512h-512z" unicode="▣"/><glyph d="M0 256v1536h1536v-1536h-1536zM256 768h256v-256h256v256h256v256h256v256h-256v256h-256v-256h-256v-256h-256v-256zM256 1280h256v256h-256v-256zM512 768v256h256v-256h-256zM768 1024v256h256v-256h-256zM1024 512h256v256h-256v-256z" unicode="▤"/><glyph d="M0 256v1536h1536v-1536h-1536zM256 768h256v-256h256v256h256v256h256v256h-256v256h-256v-256h-256v-256h-256v-256zM256 1280h256v256h-256v-256zM512 768v256h256v-256h-256zM768 1024v256h256v-256h-256zM1024 512h256v256h-256v-256z" unicode="▥"/><glyph d="M0 256v1536h1536v-1536h-1536zM256 768h256v-256h256v256h256v256h256v256h-256v256h-256v-256h-256v-256h-256v-256zM256 1280h256v256h-256v-256zM512 768v256h256v-256h-256zM768 1024v256h256v-256h-256zM1024 512h256v256h-256v-256z" unicode="▦"/><glyph d="M0 256v1536h1536v-1536h-1536zM256 768h256v-256h256v256h256v256h256v256h-256v256h-256v-256h-256v-256h-256v-256zM256 1280h256v256h-256v-256zM512 768v256h256v-256h-256zM768 1024v256h256v-256h-256zM1024 512h256v256h-256v-256z" unicode="▧"/><glyph d="M0 256v1536h1536v-1536h-1536zM256 768h256v-256h256v256h256v256h256v256h-256v256h-256v-256h-256v-256h-256v-256zM256 1280h256v256h-256v-256zM512 768v256h256v-256h-256zM768 1024v256h256v-256h-256zM1024 512h256v256h-256v-256z" unicode="▨"/><glyph d="M0 256v1536h1536v-1536h-1536zM256 768h256v-256h256v256h256v256h256v256h-256v256h-256v-256h-256v-256h-256v-256zM256 1280h256v256h-256v-256zM512 768v256h256v-256h-256zM768 1024v256h256v-256h-256zM1024 512h256v256h-256v-256z" unicode="▩"/><glyph d="M256 512v768h768v-768h-768z" unicode="▪"/><glyph d="M256 512v768h768v-768h-768zM512 768h256v256h-256v-256z" unicode="▫"/><glyph d="M0 256v256h256v512h256v512h256v512h256v-512h256v-512h256v-512h256v-256h-1792z" unicode="▲"/><glyph d="M0 256v256h256v512h256v512h256v512h256v-512h-256v-512h-256v-512h768v512h-256v512h256v-512h256v-512h256v-256h-1792z" unicode="△"/><glyph d="M0 512v256h256v256h256v256h256v-256h256v-256h256v-256h-1280z" unicode="▴"/><glyph d="M0 512v256h256v256h256v256h256v-256h-256v-256h256v256h256v-256h256v-256h-1280z" unicode="▵"/><glyph d="M0 256v1792h256v-256h512v-256h512v-256h512v-256h-512v-256h-512v-256h-512v-256h-256z" unicode="▶"/><glyph d="M0 256v1792h256v-256h512v-256h-512v-768h512v-256h-512v-256h-256zM768 768v256h512v-256h-512zM768 1280v256h512v-256h-512zM1280 1024v256h512v-256h-512z" unicode="▷"/><glyph d="M256 256v1280h256v-256h256v-256h256v-256h-256v-256h-256v-256h-256z" unicode="▸"/><glyph d="M256 256v1280h256v-256h256v-256h-256v-256h256v-256h-256v-256h-256zM768 768v256h256v-256h-256z" unicode="▹"/><glyph d="M0 1792v256h1792v-256h-256v-512h-256v-512h-256v-512h-256v512h-256v512h-256v512h-256z" unicode="▼"/><glyph d="M0 1792v256h1792v-256h-256v-512h-256v512h-768v-512h-256v512h-256zM512 768v512h256v-512h-256zM768 256v512h256v-512h-256zM1024 768v512h256v-512h-256z" unicode="▽"/><glyph d="M0 1024v256h1280v-256h-256v-256h-256v-256h-256v256h-256v256h-256z" unicode="▾"/><glyph d="M0 1024v256h1280v-256h-256v-256h-256v256h-256v-256h-256v256h-256zM512 512v256h256v-256h-256z" unicode="▿"/><glyph d="M0 1024v256h512v256h512v256h512v256h256v-1792h-256v256h-512v256h-512v256h-512z" unicode="◀"/><glyph d="M0 1024v256h512v256h512v-256h-512v-256h-512zM512 768v256h512v-256h-512zM1024 512v256h512v768h-512v256h512v256h256v-1792h-256v256h-512z" unicode="◁"/><glyph d="M256 768v256h256v256h256v256h256v-1280h-256v256h-256v256h-256z" unicode="◂"/><glyph d="M256 768v256h256v-256h-256zM512 512v256h256v256h-256v256h256v256h256v-1280h-256v256h-256z" unicode="◃"/><glyph d="M0 1024v256h256v256h256v256h256v256h256v-256h256v-256h256v-256h256v-256h-256v-256h-256v-256h-256v-256h-256v256h-256v256h-256v256h-256z" unicode="◆"/><glyph d="M0 1024v256h256v256h256v256h256v256h256v-256h-256v-256h-256v-256h-256v-256h-256zM256 768v256h256v-256h-256zM512 512v256h256v-256h-256zM768 256v256h256v-256h-256zM1024 512v256h256v-256h-256zM1024 1536v256h256v-256h-256zM1280 768v256h256v-256h-256z M1280 1280v256h256v-256h-256zM1536 1024v256h256v-256h-256z" unicode="◇"/><glyph d="M0 1024v256h256v256h256v256h256v256h256v-256h-256v-256h-256v-256h256v256h256v256h256v-256h-256v-256h256v256h256v-256h-256v-256h-256v-256h-256v256h-256v256h-256v-256h-256zM256 768v256h256v-256h-256zM512 512v256h256v-256h-256zM768 256v256h256v-256h-256z M1024 512v256h256v-256h-256zM1280 768v256h256v-256h-256zM1536 1024v256h256v-256h-256z" unicode="◈"/><glyph d="M0 768v768h256v256h256v256h768v-256h-768v-256h-256v-768h-256zM256 512v256h256v-256h-256zM512 256v256h768v-256h-768zM512 768v768h768v-768h-768zM1280 512v256h256v-256h-256zM1280 1536v256h256v-256h-256zM1536 768v768h256v-768h-256z" unicode="◉"/><glyph d="M0 768v768h256v256h256v256h768v-256h-768v-256h-256v-768h-256zM256 512v256h256v-256h-256zM512 256v256h768v-256h-768zM1280 512v256h256v-256h-256zM1280 1536v256h256v-256h-256zM1536 768v768h256v-768h-256z" unicode="○"/><glyph d="M0 768v256h256v-256h-256zM0 1280v256h256v-256h-256zM512 256v256h256v-256h-256zM512 1792v256h256v-256h-256zM1024 256v256h256v-256h-256zM1024 1792v256h256v-256h-256zM1536 768v256h256v-256h-256zM1536 1280v256h256v-256h-256z" unicode="◌"/><glyph d="M0 768v768h256v-768h-256zM256 512v256h256v768h-256v256h256v256h768v-256h256v-256h-256v-768h256v-256h-256v-256h-768v256h-256zM768 512h256v1280h-256v-1280zM1536 768v768h256v-768h-256z" unicode="◍"/><glyph d="M0 768v768h256v256h256v256h768v-256h-768v-256h-256v-768h-256zM256 512v256h256v-256h-256zM512 256v256h768v-256h-768zM512 1024v256h256v256h256v-256h-256v-256h-256zM768 768v256h256v-256h-256zM1024 1024v256h256v-256h-256zM1280 512v256h256v-256h-256z M1280 1536v256h256v-256h-256zM1536 768v768h256v-768h-256z" unicode="◎"/><glyph d="M0 768v768h256v256h256v256h768v-256h256v-256h256v-768h-256v-256h-256v-256h-768v256h-256v256h-256z" unicode="●"/><glyph d="M0 768v768h256v256h256v256h768v-256h-256v-1280h256v-256h-768v256h-256v256h-256zM1280 512v256h256v-256h-256zM1280 1536v256h256v-256h-256zM1536 768v768h256v-768h-256z" unicode="◐"/><glyph d="M0 768v768h256v256h256v256h768v-256h256v-256h256v-768h-256v-256h-256v-256h-768v256h256v1280h-256v-256h-256v-768h-256zM256 512v256h256v-256h-256z" unicode="◑"/><glyph d="M0 768v768h256v256h256v256h768v-256h-768v-256h-256v-256h1280v256h-256v256h256v-256h256v-768h-256v-256h-256v-256h-768v256h-256v256h-256z" unicode="◒"/><glyph d="M0 768v768h256v256h256v256h768v-256h256v-256h256v-768h-256v256h-1280v-256h-256zM256 512v256h256v-256h-256zM512 256v256h768v-256h-768zM1280 512v256h256v-256h-256z" unicode="◓"/><glyph d="M0 768v768h256v256h256v256h768v-256h256v-256h256v-768h-256v256h-768v768h-256v-256h-256v-768h-256zM256 512v256h256v-256h-256zM512 256v256h768v-256h-768zM1280 512v256h256v-256h-256z" unicode="◔"/><glyph d="M0 768v768h256v-256h512v512h-256v256h768v-256h256v-256h256v-768h-256v-256h-256v-256h-768v256h-256v256h-256zM256 1536v256h256v-256h-256z" unicode="◕"/><glyph d="M0 0v256h256v256h256v256h256v256h256v256h256v256h256v256h256v-1792h-1792z" unicode="◢"/><glyph d="M0 0v1792h256v-256h256v-256h256v-256h256v-256h256v-256h256v-256h256v-256h-1792z" unicode="◣"/><glyph d="M0 0v1792h1792v-256h-256v-256h-256v-256h-256v-256h-256v-256h-256v-256h-256v-256h-256z" unicode="◤"/><glyph d="M0 1536v256h1792v-1792h-256v256h-256v256h-256v256h-256v256h-256v256h-256v256h-256z" unicode="◥"/><glyph d="M256 1024v256h256v256h256v-256h-256v-256h-256zM512 768v256h256v-256h-256zM768 1024v256h256v-256h-256z" unicode="◦"/><glyph d="M0 0v1792h1792v-1792h-1792zM768 256h768v1280h-768v-1280z" unicode="◧"/><glyph d="M0 0v1792h1792v-1792h-1792zM256 256h768v1280h-768v-1280z" unicode="◨"/><glyph d="M0 0v1792h1792v-1792h-1792zM512 256h1024v1024h-256v-256h-256v-256h-256v-256h-256v-256z" unicode="◩"/><glyph d="M0 0v1792h1792v-1792h-1792zM256 512h256v256h256v256h256v256h256v256h-1024v-1024z" unicode="◪"/><glyph d="M0 0v1792h1792v-1792h-1792zM256 256h512v1280h-512v-1280zM1024 256h512v1280h-512v-1280z" unicode="◫"/><glyph d="M0 256v256h256v512h256v512h256v512h256v-512h-256v-512h-256v-512h768v512h-256v512h256v-512h256v-512h256v-256h-1792zM768 768v256h256v-256h-256z" unicode="◬"/><glyph d="M0 256v256h256v512h256v512h256v512h256v-512h-256v-1024h512v512h-256v512h256v-512h256v-512h256v-256h-1792z" unicode="◭"/><glyph d="M0 256v256h256v512h256v-512h512v1024h-256v512h256v-512h256v-512h256v-512h256v-256h-1792zM512 1024v512h256v-512h-256z" unicode="◮"/><glyph d="M0 768v768h256v256h256v256h768v-256h-768v-256h-256v-768h-256zM256 512v256h256v-256h-256zM512 256v256h768v-256h-768zM1280 512v256h256v-256h-256zM1280 1536v256h256v-256h-256zM1536 768v768h256v-768h-256z" unicode="◯"/><glyph d="M0 0v1792h1792v-1792h-1792zM256 256h1280v1280h-512v-768h-768v-512zM256 1024h512v512h-512v-512z" unicode="◰"/><glyph d="M0 0v1792h1792v-1792h-1792zM256 256h512v512h-512v-512zM256 1024h768v-768h512v1280h-1280v-512z" unicode="◱"/><glyph d="M0 0v1792h1792v-1792h-1792zM256 256h512v768h768v512h-1280v-1280zM1024 256h512v512h-512v-512z" unicode="◲"/><glyph d="M0 0v1792h1792v-1792h-1792zM256 256h1280v512h-768v768h-512v-1280zM1024 1024h512v512h-512v-512z" unicode="◳"/><glyph d="M0 768v768h256v-256h512v512h-256v256h768v-256h-256v-768h-768v-256h-256zM256 512v256h256v-256h-256zM256 1536v256h256v-256h-256zM512 256v256h768v-256h-768zM1280 512v256h256v-256h-256zM1280 1536v256h256v-256h-256zM1536 768v768h256v-768h-256z" unicode="◴"/><glyph d="M0 768v768h256v-256h768v-768h256v-256h-768v256h256v512h-512v-256h-256zM256 512v256h256v-256h-256zM256 1536v256h256v-256h-256zM512 1792v256h768v-256h-768zM1280 512v256h256v-256h-256zM1280 1536v256h256v-256h-256zM1536 768v768h256v-768h-256z" unicode="◵"/><glyph d="M0 768v768h256v256h256v256h768v-256h-768v-256h-256v-768h-256zM256 512v256h256v-256h-256zM512 256v256h256v768h768v256h256v-768h-256v256h-512v-512h256v-256h-768zM1280 512v256h256v-256h-256zM1280 1536v256h256v-256h-256z" unicode="◶"/><glyph d="M0 768v768h256v256h256v256h768v-256h-256v-512h512v256h256v-768h-256v256h-768v768h-256v-256h-256v-768h-256zM256 512v256h256v-256h-256zM512 256v256h768v-256h-768zM1280 512v256h256v-256h-256zM1280 1536v256h256v-256h-256z" unicode="◷"/><glyph d="M0 0v1792h1792v-256h-256v-256h-256v256h-1024v-1024h256v-256h-256v-256h-256zM512 512v256h256v-256h-256zM768 768v256h256v-256h-256zM1024 1024v256h256v-256h-256z" unicode="◸"/><glyph d="M0 1536v256h1792v-1792h-256v256h-256v256h256v1024h-1024v-256h-256v256h-256zM512 1024v256h256v-256h-256zM768 768v256h256v-256h-256zM1024 512v256h256v-256h-256z" unicode="◹"/><glyph d="M0 0v1792h256v-256h256v-256h-256v-1024h1024v256h256v-256h256v-256h-1792zM512 1024v256h256v-256h-256zM768 768v256h256v-256h-256zM1024 512v256h256v-256h-256z" unicode="◺"/><glyph d="M0 0v1792h1792v-1792h-1792zM256 256h1280v1280h-1280v-1280z" unicode="◻"/><glyph d="M0 1280h1280v-1280h-1280v1280z" horiz-adv-x="1280" unicode="◼"/><glyph d="M0 256v1280h1280v-1280h-1280zM256 512h768v768h-768v-768z" unicode="◽"/><glyph d="M0 256v1280h1280v-1280h-1280z" unicode="◾"/><glyph d="M0 0v256h256v256h256v-256h1024v1024h-256v256h256v256h256v-1792h-1792zM512 512v256h256v-256h-256zM768 768v256h256v-256h-256zM1024 1024v256h256v-256h-256z" unicode="◿"/><glyph d="M0 256v256h256v-256h-256zM256 0v256h256v-256h-256zM512 256v256h256v-256h-256zM768 512v256h256v-256h-256zM1024 768v256h256v-256h-256z" unicode="✓"/><glyph d="M0 256v512h256v-256h256v256h256v256h256v256h256v-512h-256v-256h-256v-256h-256v-256h-256v256h-256z" unicode="✔"/><glyph d="M0 0v256h256v256h256v256h-256v256h256v-256h256v256h256v256h256v-256h-256v-256h-256v-256h-256v-256h-256v-256h-256zM0 1024v256h256v-256h-256zM768 256v256h256v-256h-256zM1024 0v256h256v-256h-256z" unicode="✕"/><glyph d="M0 0v512h256v256h-256v512h512v-256h256v256h512v-512h-256v-256h256v-512h-512v256h-256v-256h-512z" unicode="✖"/><glyph d="M0 0v256h256v256h256v256h256v256h256v256h256v-256h-256v-256h-256v-512h-512v-256h-256zM256 768v512h256v-512h-256zM768 0v256h256v-256h-256z" unicode="✗"/><glyph d="M0 0v512h256v768h256v-256h512v256h256v-256h-256v-256h-256v-256h256v-512h-256v256h-512v-256h-256z" unicode="✘"/><glyph d="M0 256v1536h256v256h256v256h256v-256h256v-256h256v-1536h-256v-256h-256v-256h-256v256h-256v256h-256zM256 1280h256v256h-256v-256zM512 256h256v256h-256v-256zM512 768h256v256h256v512h-256v256h-256v-256h256v-512h-256v-256z" unicode="�"/></font>
</defs>
</svg>
